<?xml version="1.0" encoding="UTF-8"?>
<svg xmlns="http://www.w3.org/2000/svg" viewBox="0 0 512 512">
  <path fill="#F05032" d="M502.754 244.024L267.862 9.133c-13.553-13.552-35.504-13.552-49.057 0L182.63 45.307l61.993 61.993c14.407-4.868 30.908-1.603 42.358 9.847 11.493 11.493 14.743 28.085 9.789 42.533l59.733 59.733c14.448-4.954 31.041-1.704 42.534 9.789 16.063 16.063 16.063 42.088 0 58.151-16.063 16.063-42.088 16.063-58.151 0-12.083-12.083-15.072-29.818-8.967-44.706l-55.744-55.744v146.883c3.913 1.937 7.615 4.521 10.875 7.781 16.063 16.063 16.063 42.088 0 58.151s-42.088 16.063-58.151 0c-16.063-16.063-16.063-42.088 0-58.151 3.968-3.968 8.572-6.971 13.484-9.016V183.859c-4.912-2.045-9.516-5.033-13.484-9.016-12.15-12.15-15.079-29.98-8.856-44.906L157.364 68.166 9.133 216.397c-13.552 13.553-13.552 35.504 0 49.057l234.892 234.892c13.553 13.552 35.504 13.552 49.057 0l209.672-209.672c13.553-13.553 13.553-35.505 0-49.057"/>
</svg>
