<?xml version="1.0" encoding="UTF-8"?>
<svg xmlns="http://www.w3.org/2000/svg" viewBox="0 0 512 512">
  <path fill="#D33833" d="M157.666 84.334c-33.334 0-60.332 27-60.332 60.332v222.668c0 33.332 26.998 60.332 60.332 60.332h196.668c33.334 0 60.332-27 60.332-60.332V144.666c0-33.332-26.998-60.332-60.332-60.332H157.666zm98.334 60.332c49.998 0 90.5 40.5 90.5 90.5s-40.502 90.5-90.5 90.5-90.5-40.5-90.5-90.5 40.502-90.5 90.5-90.5z"/>
  <path fill="#ffffff" d="M256 144.666c49.998 0 90.5 40.5 90.5 90.5s-40.502 90.5-90.5 90.5-90.5-40.5-90.5-90.5 40.502-90.5 90.5-90.5z"/>
  <circle cx="256" cy="235.166" r="30.166" fill="#D33833"/>
</svg>
