<?xml version="1.0" encoding="UTF-8"?>
<svg xmlns="http://www.w3.org/2000/svg" viewBox="0 0 32 32">
  <path fill="#326CE5" d="M15.9.476a2.14 2.14 0 0 0-.823.218L4.275 6.13a2.106 2.106 0 0 0-1.065 1.085L.342 18.673a2.106 2.106 0 0 0 .29 1.807l7.293 9.073a2.106 2.106 0 0 0 1.657.827h12.824a2.106 2.106 0 0 0 1.657-.827l7.293-9.073a2.106 2.106 0 0 0 .29-1.807L28.78 7.215a2.106 2.106 0 0 0-1.065-1.085L16.923.694a2.106 2.106 0 0 0-1.023-.218z"/>
  <path fill="#ffffff" d="M16.002 4.542c-.384.027-.675.356-.655.74v.49c.017.314.203.588.478.718.276.13.604.085.837-.116l.346-.332c.21-.2.492-.311.785-.311s.574.111.785.311l.346.332c.233.201.561.246.837.116.276-.13.461-.404.478-.718v-.49c.017-.384-.271-.713-.655-.74-.384-.027-.713.271-.74.655v.49l-.346-.332c-.21-.2-.492-.311-.785-.311s-.574.111-.785.311l-.346.332v-.49c-.027-.384-.356-.682-.74-.655zm-4.793 2.09c-.384.027-.675.356-.655.74v1.96c.017.314.203.588.478.718.276.13.604.085.837-.116l1.385-1.327c.21-.2.492-.311.785-.311s.574.111.785.311l1.385 1.327c.233.201.561.246.837.116.276-.13.461-.404.478-.718v-1.96c.017-.384-.271-.713-.655-.74-.384-.027-.713.271-.74.655v1.96l-1.385-1.327c-.21-.2-.492-.311-.785-.311s-.574.111-.785.311L11.949 9.247v-1.96c-.027-.384-.356-.682-.74-.655zm9.586 0c-.384.027-.675.356-.655.74v1.96c.017.314.203.588.478.718.276.13.604.085.837-.116l1.385-1.327c.21-.2.492-.311.785-.311s.574.111.785.311l1.385 1.327c.233.201.561.246.837.116.276-.13.461-.404.478-.718v-1.96c.017-.384-.271-.713-.655-.74-.384-.027-.713.271-.74.655v1.96l-1.385-1.327c-.21-.2-.492-.311-.785-.311s-.574.111-.785.311l-1.385 1.327v-1.96c-.027-.384-.356-.682-.74-.655z"/>
</svg>
