<?xml version="1.0" encoding="UTF-8"?>
<svg xmlns="http://www.w3.org/2000/svg" viewBox="0 0 216 216">
  <defs>
    <linearGradient id="a" x1="0.5" y1="0.419" x2="0.5" y2="1.419">
      <stop offset="0" stop-color="#FFEED7"/>
      <stop offset="1" stop-color="#BDBFC2"/>
    </linearGradient>
  </defs>
  <path fill="#000000" d="M204.009,161.879c-2.608-4.015-5.134-8.074-7.639-12.151c-3.646-5.927-7.425-11.823-10.615-17.955 c-8.507-16.353-13.225-33.317-16.043-51.164c-1.361-8.641-2.227-17.391-4.125-25.927c-2.893-13.012-8.288-24.979-17.34-35.053 c-5.622-6.25-12.278-11.183-20.543-13.439c-5.853-1.599-11.915-2.169-17.892-1.37c-8.699,1.164-16.413,4.794-22.813,11.066 c-8.516,8.35-13.42,18.711-16.143,30.353c-2.868,12.27-4.674,24.748-6.805,37.156c-1.673,9.725-3.179,19.483-5.068,29.162 c-1.708,8.753-3.785,17.429-5.804,26.116c-0.844,3.631-1.734,7.252-2.755,10.827c-1.642,5.752-4.293,11.068-7.315,16.245 c-2.315,3.968-4.844,7.84-6.653,12.056c-3.353,7.806-0.764,14.728,6.738,18.291c5.197,2.466,10.791,3.495,16.404,4.261 c8.763,1.196,17.602,1.714,26.434,2.158c11.966,0.603,23.955,0.654,35.935,0.665c12.559,0.013,25.116-0.167,37.671-0.446 c8.572-0.19,17.136-0.712,25.695-1.21c6.752-0.393,13.45-1.166,19.962-3.082c3.801-1.118,7.334-2.728,9.914-5.947 c3.063-3.823,3.896-8.146,2.317-12.754C208.876,168.835,206.378,165.576,204.009,161.879z"/>
  <path fill="#ffffff" d="M106.667,49.333c-6.443,0-11.667,5.224-11.667,11.667s5.224,11.667,11.667,11.667 S118.333,67.443,118.333,61S113.11,49.333,106.667,49.333z"/>
</svg>
