<?xml version="1.0" encoding="UTF-8"?>
<svg xmlns="http://www.w3.org/2000/svg" viewBox="0 0 432.071 445.383">
  <path fill="#336791" d="M216.035 0C146.694 0 87.353 13.576 87.353 30.307c0 16.731 59.341 30.307 128.682 30.307 69.341 0 128.682-13.576 128.682-30.307C344.717 13.576 285.376 0 216.035 0zm127.921 45.517c-33.377 23.848-94.459 39.124-127.921 39.124-33.462 0-94.544-15.276-127.921-39.124C42.389 61.538 14.174 82.422 14.174 105.57v234.244c0 39.534 90.592 71.569 201.861 71.569 111.269 0 201.861-32.035 201.861-71.569V105.57c0-23.148-28.215-44.032-73.94-60.053z"/>
</svg>
