<?xml version="1.0" encoding="UTF-8"?>
<svg xmlns="http://www.w3.org/2000/svg" viewBox="0 0 512 512">
  <path fill="#3776AB" d="M314.281 85.438c-16.562-6.562-35.375-9.843-53.281-9.843s-36.719 3.281-53.281 9.843C175.891 94.688 160 117.031 160 149.344v42.343h192v21.157H160 109.875C77.562 212.844 55.219 228.735 46 260.563c-10.562 36.562-11.031 59.375 0 97.656 8.156 28.406 27.75 48.781 60.094 48.781H144v-44c0-31.781 27.5-59.781 60-59.781h120c26.375 0 48-21.625 48-48v-90.875c0-25.656-21.625-44.875-48-49.906zm-72 36.562c10 0 18 8 18 18s-8 18-18 18-18-8-18-18 8-18 18-18z"/>
  <path fill="#FFD43B" d="M197.719 426.562c16.562 6.562 35.375 9.843 53.281 9.843s36.719-3.281 53.281-9.843C336.109 417.312 352 394.969 352 362.656v-42.343H160v-21.157h192 50.125c32.313 0 54.656-15.891 63.875-47.719 10.562-36.562 11.031-59.375 0-97.656-8.156-28.406-27.75-48.781-60.094-48.781H368v44c0 31.781-27.5 59.781-60 59.781H188c-26.375 0-48 21.625-48 48v90.875c0 25.656 21.625 44.875 48 49.906zm72-36.562c-10 0-18-8-18-18s8-18 18-18 18 8 18 18-8 18-18 18z"/>
</svg>
