<?xml version="1.0" encoding="UTF-8"?>
<svg xmlns="http://www.w3.org/2000/svg" viewBox="0 0 512 512">
  <rect width="512" height="512" rx="50" fill="#3178c6"/>
  <path fill="#fff" d="M317 407v50c8.1 4.2 18 7.3 29 9.4s23 3.1 35 3.1c12 0 23-1.1 34-3.4 11-2.3 20-6.1 28-11.4 8.1-5.3 15-12.2 19-20.7 4.7-8.4 7-18.9 7-31.4 0-9-1.3-17.2-4-24.4-2.6-7.2-6.4-13.5-11-18.9-4.8-5.4-11-10-18-13.7-7.1-3.7-15-7.1-24-10.1-6.6-2.2-13-4.3-19-6.4-5.7-2.1-11-4.4-15-6.9-4.3-2.5-7.7-5.4-10-8.7-2.4-3.3-3.6-7.3-3.6-12 0-4.1 1-7.7 3-10.8 2-3.1 4.7-5.7 8.1-7.8 3.4-2.1 7.5-3.7 12-4.8 4.7-1.1 9.7-1.7 15-1.7 4.1 0 8.3.3 13 .8 4.5.5 9 1.4 13 2.5 4.3 1.1 8.3 2.4 12 4 3.8 1.5 7.2 3.2 10 5.1v-47c-7.6-2.9-16-5.1-25-6.5s-19-2.1-31-2.1c-12 0-23 1.3-34 3.8s-20 6.5-28 11.9c-8.1 5.4-14 12.4-19 21-4.7 8.6-7 19-7 31 0 15 4.3 28 13 38 8.6 11 22 19 39 27 6.9 2.8 13 5.3 19 7.7 5.8 2.4 11 4.8 15 7.3 4.4 2.5 7.9 5.2 10 8.1 2.4 2.9 3.6 6.3 3.6 10 0 4.1-.9 7.6-2.7 11-1.8 3.3-4.3 6.1-7.5 8.3-3.2 2.2-7.1 3.8-12 5-4.7 1.1-9.9 1.7-16 1.7-11 0-22-1.9-32-5.7-11-3.8-21-9.5-28.1-15.44zm-84-123h64v-41H118v41h64v183h51z"/>
</svg>
